<?xml version="1.0" encoding="utf-8"?>
<!-- Generator: Adobe Illustrator 25.2.1, SVG Export Plug-In . SVG Version: 6.00 Build 0)  -->
<svg version="1.1" id="Layer_1" xmlns="http://www.w3.org/2000/svg" xmlns:xlink="http://www.w3.org/1999/xlink" x="0px" y="0px"
	 viewBox="0 0 62.5 41.6" style="enable-background:new 0 0 62.5 41.6; fill:#8a6fad;" xml:space="preserve">
<g>
	<path d="M35,19.4h13.5c1.5,0,2.7-1.2,2.7-2.7V5c0-1.5-1.2-2.7-2.7-2.7H35c-1.5,0-2.7,1.2-2.7,2.7v11.7C32.3,18.2,33.5,19.4,35,19.4
		L35,19.4z M35,19.4"/>
	<path d="M14.1,19.4h13.5c1.5,0,2.7-1.2,2.7-2.7V5c0-1.5-1.2-2.7-2.7-2.7H14.1c-1.5,0-2.7,1.2-2.7,2.7v11.7
		C11.4,18.2,12.6,19.4,14.1,19.4L14.1,19.4z M14.1,19.4"/>
	<path d="M56.9,12.2c-2.2,0-4,1.8-4,4v6.3c-0.9-0.6-1.9-0.9-3-0.9H12.7c-1.1,0-2.2,0.3-3,0.9v-6.3c0-2.2-1.8-4-4-4c-2.2,0-4,1.8-4,4
		v17.5c0,2.2,1.8,4,4,4H7c0,1.5,1.2,2.7,2.7,2.7c1.5,0,2.7-1.2,2.7-2.7h37.8c0,1.5,1.2,2.7,2.7,2.7c1.5,0,2.7-1.2,2.7-2.7h1.3
		c2.2,0,4-1.8,4-4V16.3C60.9,14,59.1,12.2,56.9,12.2L56.9,12.2z M56.9,12.2"/>
</g>
</svg>
