<?xml version="1.0" encoding="utf-8"?>
<!-- Generator: Adobe Illustrator 25.2.1, SVG Export Plug-In . SVG Version: 6.00 Build 0)  -->
<svg version="1.1" id="Layer_1" xmlns="http://www.w3.org/2000/svg" xmlns:xlink="http://www.w3.org/1999/xlink" x="0px" y="0px"
	 viewBox="0 0 62.5 41.6" style="enable-background:new 0 0 62.5 41.6; fill:#8a6fad;" xml:space="preserve">
<g>
	<path d="M57.7,17.9c-0.2-0.1-0.5-0.1-0.7-0.2c-2.2-0.6-3.3-0.9-4.1-2.4L50,9.5c-0.9-1.8-3.3-3.3-5.4-3.3h-5.2v-4
		c0-1.2-1-2.2-2.2-2.2L2.5,0c-1.2,0-2,0.9-2,2.2v30.1c0,1.2,1,2.2,2.2,2.2h3.8c0.6,4,4,7.1,8.2,7.1c4.2,0,7.6-3.1,8.2-7.1h13.8
		c0.1,0,0.2,0,0.3,0c0.6,4,4,7.1,8.2,7.1c4.2,0,7.6-3.1,8.2-7.1h5.4c2.1,0,3.8-1.7,3.8-3.8v-6.5C62.5,19,59.6,18.3,57.7,17.9
		L57.7,17.9z M14.6,36.4c-1.7,0-3.1-1.4-3.1-3.1c0-1.7,1.4-3.1,3.1-3.1c1.7,0,3.1,1.4,3.1,3.1C17.7,35,16.3,36.4,14.6,36.4
		L14.6,36.4z M45.1,36.4c-1.7,0-3.1-1.4-3.1-3.1c0-1.7,1.4-3.1,3.1-3.1c1.7,0,3.1,1.4,3.1,3.1C48.2,35,46.8,36.4,45.1,36.4
		L45.1,36.4z M39.4,17.5V9.3h4c1.5,0,3.4,1.2,4.1,2.5l2.6,5.3c0.1,0.1,0.1,0.3,0.2,0.4H39.4z M39.4,17.5"/>
</g>
</svg>
