<?xml version="1.0" encoding="utf-8"?>
<!-- Generator: Adobe Illustrator 25.2.1, SVG Export Plug-In . SVG Version: 6.00 Build 0)  -->
<svg version="1.1" id="Layer_1" xmlns="http://www.w3.org/2000/svg" xmlns:xlink="http://www.w3.org/1999/xlink" x="0px" y="0px"
	 viewBox="0 0 62.5 41.6" style="enable-background:new 0 0 62.5 41.6; fill:#8a6fad;" xml:space="preserve">
<g>
	<path d="M54.1,0.2h-5.6v2.3C48.5,2.8,48.3,3,48,3h-1.2c-0.3,0-0.5-0.2-0.5-0.5V0.2h-5.6c-0.4,0-0.8,0.3-0.8,0.8v11.9
		c0,0.4,0.3,0.8,0.8,0.8h13.4c0.4,0,0.8-0.3,0.8-0.8V0.9C54.9,0.5,54.5,0.2,54.1,0.2L54.1,0.2z M54.1,0.2"/>
	<path d="M46.3,41.1c-3.4,0-6.1-2.8-6.1-6.1c0-3.4,2.8-6.1,6.1-6.1c3.4,0,6.1,2.8,6.1,6.1C52.5,38.4,49.7,41.1,46.3,41.1L46.3,41.1z
		 M46.3,31.9c-1.7,0-3,1.4-3,3c0,1.7,1.4,3,3,3c1.7,0,3-1.4,3-3C49.4,33.3,48,31.9,46.3,31.9L46.3,31.9z M46.3,31.9"/>
	<path d="M12.3,41.1c-3.4,0-6.1-2.8-6.1-6.1c0-3.4,2.8-6.1,6.1-6.1c3.4,0,6.1,2.8,6.1,6.1C18.4,38.4,15.7,41.1,12.3,41.1L12.3,41.1z
		 M12.3,31.9c-1.7,0-3,1.4-3,3c0,1.7,1.4,3,3,3c1.7,0,3-1.4,3-3C15.3,33.3,14,31.9,12.3,31.9L12.3,31.9z M12.3,31.9"/>
	<path d="M49.3,23v-1.7h4.3c1,0,1.8-0.8,1.8-1.8v-1.2c0-1-0.8-1.8-1.8-1.8H32.1c-1,0-1.8,0.8-1.8,1.8v1.3c0,1,0.8,1.8,1.8,1.8h2.4
		V28H22.6c-0.9-1.4-2-2.5-3.3-3.4l4.7-16.9h4.3C29.2,7.8,30,7,30,6c0-1-0.8-1.8-1.8-1.8h-6.1c-0.2,0-0.6,0.1-0.8,0.2
		C21,4.6,20.8,4.8,20.6,5L8.2,23.7c-0.4,0.5-0.6,1.2-0.4,1.8c0.3,0.9,1.4,1.3,2.5,0.9c0.8-0.2,1.5-0.4,2.4-0.4
		c4.6,0,8.3,3.7,8.3,8.3c0,1,0.8,1.8,1.8,1.8h13.6c1,0,1.8-0.8,1.8-1.8c0-4.6,3.7-8.3,8.3-8.3c4.6,0,8.3,3.7,8.3,8.3
		c0,1,0.8,1.8,1.8,1.8c1,0,1.8-0.8,1.8-1.8C58.1,28.9,54.4,24.3,49.3,23L49.3,23z M49.3,23"/>
</g>
</svg>
