<svg id="Layer_1" data-name="Layer 1" xmlns="http://www.w3.org/2000/svg" viewBox="0 0 46.77 41.42"><defs><style>.cls-1{fill:#2d2d2d;}</style></defs><path class="cls-1" d="M277.71,108.39a3.89,3.89,0,1,1-3.89,3.89A3.89,3.89,0,0,1,277.71,108.39Z" transform="translate(-260.23 -74.75)"/><path class="cls-1" d="M294.67,108.39a3.89,3.89,0,1,1-3.88,3.89A3.89,3.89,0,0,1,294.67,108.39Z" transform="translate(-260.23 -74.75)"/><path class="cls-1" d="M304.58,87.08h-24A1.91,1.91,0,0,0,279.16,89a2.13,2.13,0,0,0,1.42,2h21.51l-1.21,4.09H279.74a1.76,1.76,0,0,0-1.32,1.75,2,2,0,0,0,1.32,1.88h20.07l-1.13,3.82H276.85L275.4,91l-.47-3.9s-.43-3.59-.66-5.08-4-3.36-12-7.14c-1.89-.79-3.46,2.66,0,4.47l6.32,3s1.47.86,1.6,2,2.69,20.18,2.69,20.18.1,2.64,2.51,2.64h24.13a2.56,2.56,0,0,0,2.41-2.11l4.79-14.2S308.14,87.08,304.58,87.08Z" transform="translate(-260.23 -74.75)"/></svg>